Coordinates
version=1
nRows=38
nColumns=12
inDegrees=yes

Units are S.I. units (second, meters, Newtons, ...)
Angles are in degrees

endheader
time	SC_y	SC_z	SC_x	AC_y	AC_z	AC_x	GH_y	GH_z	GH_yy	EL_x	PS_y
       0.0              -54.25           5.05          12.43          56.89         -8.236         -14.85          90.35          62.35         -47.74          40.29          66.83
   0.03168              -54.25          5.051          12.44          56.89         -8.236         -14.85          90.35          62.35         -47.73           40.3          66.82
   0.06336              -54.25          5.052          12.45          56.89         -8.236         -14.85          90.36          62.34         -47.72           40.3          66.81
   0.09504              -54.24          5.053          12.45          56.88         -8.236         -14.85          90.37          62.34          -47.7           40.3           66.8
    0.1267              -54.24          5.054          12.46          56.88         -8.236         -14.85          90.37          62.34         -47.68           40.3          66.79
    0.1584              -54.24          5.056          12.47          56.87         -8.236         -14.85          90.38          62.33         -47.67           40.3          66.78
    0.1901              -54.23          5.057          12.48          56.87         -8.236         -14.85          90.39          62.33         -47.65           40.3          66.77
    0.2218              -54.23          5.059          12.49          56.86         -8.235         -14.85           90.4          62.32         -47.63          40.31          66.75
    0.2534              -54.22           5.06           12.5          56.86         -8.235         -14.85          90.41          62.32         -47.61          40.31          66.74
    0.2851              -54.22          5.062          12.51          56.85         -8.235         -14.85          90.42          62.32         -47.59          40.31          66.72
    0.3168              -54.21          5.064          12.53          56.84         -8.235         -14.85          90.43          62.31         -47.57          40.31          66.71
    0.3485              -54.21          5.066          12.54          56.84         -8.234         -14.85          90.44           62.3         -47.54          40.31          66.69
    0.3801               -54.2          5.068          12.55          56.83         -8.234         -14.85          90.45           62.3         -47.51          40.32          66.67
    0.4118               -54.2           5.07          12.57          56.82         -8.234         -14.84          90.47          62.29         -47.48          40.32          66.65
    0.4435              -54.19          5.073          12.59          56.81         -8.234         -14.84          90.48          62.28         -47.45          40.32          66.63
    0.4752              -54.18          5.075          12.61           56.8         -8.233         -14.84           90.5          62.28         -47.42          40.33          66.61
    0.5069              -54.17          5.078          12.63          56.79         -8.233         -14.84          90.51          62.27         -47.38          40.33          66.58
    0.5385              -54.17          5.081          12.65          56.78         -8.233         -14.84          90.53          62.26         -47.34          40.33          66.56
    0.5702              -54.16          5.085          12.67          56.77         -8.232         -14.84          90.55          62.25         -47.29          40.34          66.53
    0.6019              -54.15          5.089           12.7          56.76         -8.232         -14.83          90.58          62.24         -47.24          40.34          66.49
    0.6336              -54.13          5.093          12.73          56.74         -8.231         -14.83           90.6          62.23         -47.19          40.35          66.46
    0.6653              -54.12          5.097          12.76          56.72         -8.231         -14.83          90.63          62.21         -47.13          40.36          66.42
    0.6969              -54.11          5.102          12.79          56.71          -8.23         -14.83          90.66           62.2         -47.07          40.36          66.37
    0.7286              -54.09          5.108          12.83          56.69         -8.229         -14.82          90.69          62.18         -46.99          40.37          66.32
    0.7603              -54.07          5.114          12.87          56.66         -8.229         -14.82          90.73          62.17         -46.91          40.38          66.27
     0.792              -54.06          5.121          12.92          56.64         -8.228         -14.82          90.77          62.15         -46.82          40.39          66.21
    0.8236              -54.03          5.129          12.98          56.61         -8.227         -14.81          90.82          62.12         -46.72           40.4          66.14
    0.8553              -54.01          5.138          13.04          56.58         -8.226         -14.81          90.87           62.1         -46.61          40.41          66.07
     0.887              -53.98          5.148           13.1          56.55         -8.225          -14.8          90.93          62.07         -46.48          40.42          65.98
    0.9187              -53.95          5.159          13.18          56.51         -8.223          -14.8           91.0          62.04         -46.33          40.43          65.88
    0.9504              -53.91          5.172          13.27          56.46         -8.222         -14.79          91.08           62.0         -46.17          40.45          65.77
     0.982              -53.87          5.187          13.37          56.41          -8.22         -14.79          91.17          61.96         -45.98          40.47          65.64
     1.014              -53.83          5.204          13.49          56.35         -8.218         -14.78          91.27          61.91         -45.76          40.49           65.5
     1.045              -53.77          5.224          13.63          56.28         -8.216         -14.77          91.39          61.85          -45.5          40.52          65.32
     1.077              -53.71          5.247          13.79           56.2         -8.213         -14.76          91.53          61.79          -45.2          40.55          65.12
     1.109              -53.63          5.274          13.97           56.1          -8.21         -14.74          91.69          61.71         -44.85          40.58          64.89
      1.14              -53.54          5.307           14.2          55.98         -8.206         -14.73          91.89          61.61         -44.43          40.62          64.61
     1.172              -53.44          5.345          14.46          55.85         -8.201         -14.71          92.12           61.5         -43.93          40.67          64.27
